<svg width="1274" height="875" viewBox="0 0 1274 875" fill="#1E2134"
     xmlns="http://www.w3.org/2000/svg">
    <circle cx="1128" cy="18" r="4" fill="#313552"/>
    <circle cx="1128" cy="46" r="4" fill="#313552"/>
    <circle cx="1128" cy="74" r="4" fill="#313552"/>
    <circle cx="1128" cy="102" r="4" fill="#313552"/>
    <circle cx="1128" cy="130" r="4" fill="#313552"/>
    <circle cx="1156" cy="18" r="4" fill="#313552"/>
    <circle cx="1156" cy="46" r="4" fill="#313552"/>
    <circle cx="1156" cy="74" r="4" fill="#313552"/>
    <circle cx="1156" cy="102" r="4" fill="#313552"/>
    <circle cx="1156" cy="130" r="4" fill="#313552"/>
    <circle cx="1184" cy="18" r="4" fill="#313552"/>
    <circle cx="1184" cy="46" r="4" fill="#313552"/>
    <circle cx="1184" cy="74" r="4" fill="#313552"/>
    <circle cx="1184" cy="102" r="4" fill="#313552"/>
    <circle cx="1184" cy="130" r="4" fill="#313552"/>
    <rect x="571" y="85" width="20" height="20" fill="#313552"/>
    <rect x="632" y="130" width="15" height="15" fill="#313552"/>
    <rect x="640" y="35" width="30" height="30" fill="#313552"/>
    <path d="M35 142L51 126L67 142L83 126L99 142L115 126L131 142L147 126L163 142L179 126L195 142" stroke="#313552"
          stroke-width="2"/>
    <path d="M35 168L51 152L67 168L83 152L99 168L115 152L131 168L147 152L163 168L179 152L195 168" stroke="#313552"
          stroke-width="2"/>
    <path d="M1077 751L1093 735L1109 751L1125 735L1141 751L1157 735L1173 751L1189 735L1205 751L1221 735L1237 751"
          stroke="#313552" stroke-width="2"/>
    <path d="M1077 777L1093 761L1109 777L1125 761L1141 777L1157 761L1173 777L1189 761L1205 777L1221 761L1237 777"
          stroke="#313552" stroke-width="2"/>
    <path d="M228 516L244 500L260 516L276 500L292 516L308 500L324 516L340 500L356 516L372 500L388 516" stroke="#313552"
          stroke-width="2"/>
    <path d="M228 542L244 526L260 542L276 526L292 542L308 526L324 542L340 526L356 542L372 526L388 542" stroke="#313552"
          stroke-width="2"/>
    <path d="M0 847L16 831L32 847L48 831L64 847L80 831L96 847L112 831L128 847L144 831L160 847" stroke="#313552"
          stroke-width="2"/>
    <path d="M0 873L16 857L32 873L48 857L64 873L80 857L96 873L112 857L128 873L144 857L160 873" stroke="#313552"
          stroke-width="2"/>
    <path d="M873 58L889 42L905 58L921 42L937 58L953 42L969 58L985 42L1001 58L1017 42L1033 58" stroke="#313552"
          stroke-width="2"/>
    <path d="M873 84L889 68L905 84L921 68L937 84L953 68L969 84L985 68L1001 84L1017 68L1033 84" stroke="#313552"
          stroke-width="2"/>
    <path d="M0 421C4.59626 421 9.14753 423.03 13.3939 426.975C17.6403 430.92 21.4987 436.703 24.7487 443.992C27.9988 451.282 30.5769 459.935 32.3358 469.459C34.0947 478.983 35 489.191 35 499.5C35 509.809 34.0947 520.017 32.3358 529.541C30.5769 539.065 27.9988 547.718 24.7487 555.008C21.4987 562.297 17.6403 568.08 13.3939 572.025C9.14752 575.97 4.59626 578 -3.8147e-06 578L0 499.5V421Z"
          fill="#313552"/>
    <path fill-rule="evenodd" clip-rule="evenodd"
          d="M418.743 19.9131L411 0L395.994 38.5931L418.743 19.9131ZM420.268 23.8363L425.563 37.454L422.522 94.5894L388.342 58.2732L393.038 46.1964L420.268 23.8363ZM386.735 62.4052L386.736 62.4033L417.564 95.1578H395.218L386.735 62.4052ZM384.255 68.7835L374 95.1578H388.991H391.086L384.255 68.7835ZM426.497 95.1578L429.086 46.5153L448 95.1578H426.497Z"
          fill="#313552"/>
    <circle cx="606" cy="437" r="5" fill="#313552"/>
    <circle cx="649" cy="472" r="15" fill="#313552"/>
    <circle cx="591" cy="502" r="10" fill="#313552"/>
    <path d="M1241.05 408.017C1245.25 412.221 1248.59 417.212 1250.86 422.706C1253.14 428.199 1254.31 434.087 1254.31 440.033C1254.31 445.979 1253.14 451.867 1250.86 457.36C1248.59 462.854 1245.25 467.845 1241.05 472.05C1236.85 476.254 1231.85 479.589 1226.36 481.865C1220.87 484.14 1214.98 485.311 1209.03 485.311C1203.09 485.311 1197.2 484.14 1191.71 481.865C1186.21 479.589 1181.22 476.254 1177.02 472.05L1209.03 440.033L1241.05 408.017Z"
          fill="#313552"/>
    <path d="M1160.07 490L1261.07 388" stroke="#313552" stroke-width="3"/>
</svg>
