<svg width="298" height="260" viewBox="0 0 298 260" fill="none"
  xmlns="http://www.w3.org/2000/svg">
  <g clipPath="url(#clip0)">
    <path opacity="0.2" d="M269.782 93.4943H252.583V102.414H269.782V93.4943Z" fill="#6C63FF" />
    <path opacity="0.2" d="M271.105 104.396H253.906V113.316H271.105V104.396Z" fill="#6C63FF" />
    <path opacity="0.2" d="M256.883 28.7421H239.683V37.662H256.883V28.7421Z" fill="#6C63FF" />
    <path opacity="0.2" d="M269.121 38.9835H251.921V47.9035H269.121V38.9835Z" fill="#6C63FF" />
    <path opacity="0.2" d="M236.044 29.4028H218.844V38.3228H236.044V29.4028Z" fill="#6C63FF" />
    <path opacity="0.2" d="M291.282 49.2249H274.082V58.1448H291.282V49.2249Z" fill="#6C63FF" />
    <path opacity="0.2" d="M270.444 49.8856H253.244V58.8056H270.444V49.8856Z" fill="#6C63FF" />
    <path opacity="0.2" d="M248.283 39.6443H231.083V48.5642H248.283V39.6443Z" fill="#6C63FF" />
    <path opacity="0.2" d="M290.29 117.942H273.09V126.861H290.29V117.942Z" fill="#6C63FF" />
    <path opacity="0.2" d="M269.452 118.602H252.252V127.522H269.452V118.602Z" fill="#6C63FF" />
    <path d="M43.2476 91.1818C43.2476 91.1818 67.4894 115.394 53.8056 151.309C40.1219 187.223 77.2602 246.997 77.2602 246.997C77.2602 246.997 76.8633 246.937 76.1257 246.808C26.3389 238.031 1.60091 181.158 29.2992 138.92C39.5794 123.198 48.0272 104.773 43.2476 91.1818Z" fill="#6C63FF" />
    <path d="M43.2476 91.1818C43.2476 91.1818 56.9314 120.862 43.2476 145.071C29.5638 169.281 40.9025 237.244 77.2636 246.997" stroke="#535461" strokeWidth="2" strokeMiterlimit="10" />
    <path d="M0.069458 189.109C0.069458 189.109 27.7314 184.709 30.2518 209.47C32.7723 234.231 83.4456 237.664 83.4456 237.664C83.4456 237.664 83.1148 237.888 82.4962 238.295C40.6577 265.715 0.664836 255.768 6.69469 219.345C8.93398 205.803 8.74875 192.202 0.069458 189.109Z" fill="#6C63FF" />
    <path opacity="0.2" d="M0.069458 189.109C0.069458 189.109 27.7314 184.709 30.2518 209.47C32.7723 234.231 83.4456 237.664 83.4456 237.664C83.4456 237.664 83.1148 237.888 82.4962 238.295C40.6577 265.715 0.664836 255.768 6.69469 219.345C8.93398 205.803 8.74875 192.202 0.069458 189.109Z" fill="#F5F5F5" />
    <path d="M0.069458 189.11C0.069458 189.11 21.5395 193.817 19.7765 213.316C18.0135 232.814 51.6623 256.201 83.4456 237.664" stroke="#535461" strokeWidth="2" strokeMiterlimit="10" />
    <path opacity="0.2" d="M17.4082 93.8246H0.208374V102.745H17.4082V93.8246Z" fill="#6C63FF" />
    <path opacity="0.2" d="M29.6465 104.066H12.4467V112.986H29.6465V104.066Z" fill="#6C63FF" />
    <path opacity="0.2" d="M122.592 0H105.392V8.91995H122.592V0Z" fill="#6C63FF" />
    <path opacity="0.2" d="M258.206 164.524H241.006V173.443H258.206V164.524Z" fill="#6C63FF" />
    <path opacity="0.2" d="M30.9696 114.968H13.7698V123.888H30.9696V114.968Z" fill="#6C63FF" />
    <path opacity="0.2" d="M134.83 10.2415H117.63V19.1614H134.83V10.2415Z" fill="#6C63FF" />
    <path opacity="0.2" d="M71.9845 70.6989H54.7847V79.6188H71.9845V70.6989Z" fill="#6C63FF" />
    <path opacity="0.2" d="M84.2229 80.9403H67.023V89.8602H84.2229V80.9403Z" fill="#6C63FF" />
    <path opacity="0.2" d="M116.969 75.324H99.7688V84.2439H116.969V75.324Z" fill="#6C63FF" />
    <path opacity="0.2" d="M85.5459 91.8424H68.3461V100.762H85.5459V91.8424Z" fill="#6C63FF" />
    <path opacity="0.2" d="M281.359 164.524H264.159V173.443H281.359V164.524Z" fill="#6C63FF" />
    <path d="M238.366 129.21C237.253 123.02 236.57 116.76 236.322 110.475C236.102 105.299 234.285 100.318 231.119 96.2147C227.953 92.1111 223.594 89.086 218.639 87.5543C216.833 86.9993 214.846 86.4806 212.649 86.0148C193.399 81.9314 187.551 85.4961 186.886 85.9652C186.323 84.9429 185.833 83.882 185.421 82.7904C185.388 82.678 185.358 82.5657 185.325 82.46C189.135 78.4019 191.456 73.1744 191.91 67.6298C195.122 64.3789 196.997 60.4542 196.997 56.2287C196.997 52.5947 195.608 49.1853 193.177 46.2351V40.4933C193.177 33.8719 190.544 27.5217 185.856 22.8397C181.168 18.1577 174.81 15.5273 168.181 15.5273H166.154C162.871 15.5273 159.621 16.1731 156.588 17.4278C153.555 18.6824 150.8 20.5214 148.479 22.8397C146.158 25.158 144.316 27.9102 143.06 30.9392C141.804 33.9682 141.158 37.2147 141.158 40.4933V46.6811C138.951 49.5256 137.701 52.7731 137.701 56.2221C137.701 60.3583 139.5 64.2038 142.59 67.415C143.012 73.1628 145.44 78.5805 149.45 82.7243C149.585 83.6625 149.724 84.6702 149.86 85.734L115.427 92.9988C115.427 92.9988 102.15 93.5439 93.5968 111.169C86.3629 126.098 71.968 164.454 67.7044 175.872C66.9337 177.94 66.4971 179.126 66.4971 179.126C66.4971 179.126 66.6394 178.984 66.9073 178.739L66.4971 179.853C66.4971 179.853 66.7055 179.641 67.1024 179.294C66.5004 184.071 66.4144 192.275 72.6791 193.295C77.9317 194.151 91.4666 194.504 101.691 194.647H102.398C109.176 194.736 114.332 194.736 114.332 194.736V194.647H224.292V193.52C224.293 192.498 224.088 191.487 223.687 190.547L223.839 190.362C224.427 191.138 224.819 192.045 224.98 193.005C224.967 193.098 224.95 193.191 224.927 193.282L224.993 193.114C225.019 193.414 224.997 193.716 224.927 194.009C224.927 194.009 239.034 157.705 238.882 136.026C238.923 133.743 238.75 131.461 238.366 129.21ZM150.432 90.6399C150.25 89.6043 150.133 88.5583 150.082 87.508C150.082 87.508 150.082 87.4882 150.082 87.4783C150.204 88.4991 150.323 89.5563 150.432 90.6399ZM107.691 168.62V177.272L102.266 178.432L107.691 168.62Z" fill="url(#paint0_linear)" />
    <path d="M166.61 19.0193C173.239 19.0193 179.597 21.6496 184.285 26.3316C188.972 31.0137 191.606 37.3639 191.606 43.9852V54.6363H141.614V43.9852C141.614 37.3639 144.247 31.0137 148.935 26.3316C153.623 21.6496 159.981 19.0193 166.61 19.0193Z" fill="#E14B5A" />
    <path d="M166.785 77.6829C182.521 77.6829 195.277 68.928 195.277 58.1284C195.277 47.3287 182.521 38.5739 166.785 38.5739C151.049 38.5739 138.293 47.3287 138.293 58.1284C138.293 68.928 151.049 77.6829 166.785 77.6829Z" fill="#E14B5A" />
    <path d="M148.52 77.0717C148.52 77.0717 154.474 108.149 148.52 116.531C142.567 124.912 166.712 128.229 166.712 128.229L191.705 119.151L195.201 96.8013C195.201 96.8013 179.986 88.2447 183.138 70.9598L148.52 77.0717Z" fill="#F7C4A7" />
    <path d="M222.288 181.832C222.288 181.832 223.862 188.64 215.295 189.863C210.237 190.606 205.093 190.545 200.054 189.681L198.165 172.578H218.094L222.288 181.832Z" fill="#F7C4A7" />
    <path d="M71.0154 173.116C71.0154 173.116 67.2314 188.475 75.7982 189.863C84.3651 191.25 115.821 191.26 115.821 191.26V173.09L101.578 176.129L88.2086 163.324L71.0154 173.116Z" fill="#F7C4A7" />
    <path opacity="0.1" d="M150.359 87.1115L116.883 94.1814C116.883 94.1814 104.122 94.7066 95.9055 111.641C87.6893 128.576 69.8577 176.942 69.8577 176.942C69.8577 176.942 85.0729 161.577 102.898 177.989L114.786 156.515L112.163 190.563H204.274V174.497C204.274 174.497 223.502 184.798 222.106 190.56C222.106 190.56 238.561 148.213 235.006 128.969C233.935 123.02 233.279 117.004 233.041 110.964C232.831 105.99 231.085 101.202 228.042 97.2585C224.999 93.3149 220.809 90.4085 216.046 88.9384C214.313 88.4065 212.408 87.9077 210.291 87.4617C190.538 83.2726 185.483 87.4617 185.483 87.4617C185.483 87.4617 181.656 99.8967 181.726 105.533C181.812 112.778 171.413 117.581 171.413 117.581C171.413 117.581 156.029 113.914 155.331 110.948C154.633 107.981 149.129 90.6035 150.359 87.1115Z" fill="#363732" />
    <path d="M150.359 86.4146L116.883 93.4845C116.883 93.4845 104.122 94.0097 95.9055 110.944C87.6893 127.879 69.8544 176.252 69.8544 176.252C69.8544 176.252 85.0696 160.886 102.895 177.299L114.782 155.825L112.159 189.863H204.274V173.8C204.274 173.8 223.502 184.101 222.106 189.863C222.106 189.863 238.561 147.516 235.006 128.272C233.935 122.323 233.279 116.307 233.041 110.267C232.831 105.293 231.085 100.505 228.042 96.5616C224.999 92.618 220.809 89.7116 216.046 88.2415C214.313 87.7096 212.408 87.2108 210.291 86.7648C190.538 82.5757 185.483 86.7648 185.483 86.7648C185.483 86.7648 181.656 99.1998 181.726 104.836C181.812 112.081 171.413 116.884 171.413 116.884C171.413 116.884 156.029 113.217 155.331 110.251C154.633 107.284 149.129 89.9066 150.359 86.4146Z" fill="#575988" />
    <path opacity="0.1" d="M184.567 84.9311C183.161 80.9546 182.846 76.6748 183.654 72.5356L149.036 78.6442C149.036 78.6442 149.536 81.2574 150.101 85.1722C152.338 87.4904 155.024 89.33 157.995 90.5791C160.965 91.8282 164.16 92.4607 167.383 92.4381C170.606 92.4156 173.791 91.7384 176.744 90.4479C179.697 89.1573 182.357 87.2803 184.561 84.9311H184.567Z" fill="#363732" />
    <path d="M190.471 67.121C190.444 73.3513 187.967 79.3214 183.573 83.744C179.179 88.1666 173.221 90.6874 166.984 90.7628C160.747 90.8382 154.729 88.4622 150.23 84.1472C145.73 79.8321 143.109 73.9237 142.93 67.6958C142.93 67.5042 142.93 67.3126 142.93 67.121C142.929 62.6749 144.178 58.3177 146.534 54.5453C148.89 50.7729 152.259 47.7368 156.257 45.7825C156.969 45.4345 157.701 45.1218 158.453 44.8442C162.364 43.4083 166.583 43.0165 170.692 43.7078C175.958 44.6034 180.768 47.2457 184.345 51.2079C187.923 55.1702 190.059 60.2211 190.409 65.5451C190.45 66.0671 190.471 66.5924 190.471 67.121Z" fill="#F7C4A7" />
    <g opacity="0.1">
      <path opacity="0.1" d="M158.417 45.4026L158.45 45.3828C157.698 45.6603 156.966 45.9731 156.254 46.3211C152.255 48.2754 148.886 51.3115 146.53 55.0839C144.175 58.8563 142.926 63.2134 142.927 67.6596C142.927 67.8512 142.927 68.0428 142.927 68.2344C143.666 68.2145 144.393 68.04 145.061 67.7223C150.856 65.0199 154.322 56.7541 155.698 50.9892C156.194 48.9244 156.661 46.5986 158.417 45.4026Z" fill="#363732" />
      <path opacity="0.1" d="M176.612 46.0667C174.731 45.2033 172.743 44.5912 170.702 44.2463C172.376 44.6312 173.871 45.5694 174.945 46.9091C175.472 47.624 175.908 48.4007 176.245 49.2217C173.081 47.84 169.655 47.1613 166.202 47.2326C162.75 47.3039 159.354 48.1235 156.25 49.6347C157.742 52.902 162.37 54.6827 165.459 55.8753C168.842 57.1792 172.259 58.3718 175.713 59.4532L172.656 56.9754L179.559 58.0723C179.634 56.7001 179.47 55.3254 179.077 54.0087C180.4 55.0725 182.153 55.4293 183.588 56.3213C186.277 58.0161 187.399 61.2768 188.864 64.1015C189.251 64.8481 189.707 65.6113 190.405 66.0837C190.123 61.8161 188.693 57.7037 186.265 54.1805C183.837 50.6574 180.502 47.8541 176.612 46.0667Z" fill="#363732" />
    </g>
    <path d="M158.417 44.8641L158.45 44.8442C157.698 45.1217 156.966 45.4345 156.254 45.7825C152.255 47.7368 148.886 50.7729 146.53 54.5453C144.175 58.3177 142.926 62.6749 142.927 67.121C142.927 67.3126 142.927 67.5042 142.927 67.6958C143.666 67.6759 144.393 67.5014 145.061 67.1838C150.856 64.4813 154.322 56.2155 155.698 50.4506C156.194 48.399 156.661 46.0633 158.417 44.8641Z" fill="#632652" />
    <path d="M176.612 45.5314C174.731 44.668 172.743 44.0559 170.702 43.7111C172.376 44.0959 173.871 45.0342 174.945 46.3738C175.472 47.0887 175.908 47.8654 176.245 48.6864C173.081 47.3047 169.655 46.626 166.202 46.6973C162.75 46.7686 159.354 47.5882 156.25 49.0994C157.742 52.3667 162.37 54.1474 165.459 55.34C168.842 56.6439 172.259 57.8365 175.713 58.9179L172.656 56.4401L179.559 57.537C179.634 56.1648 179.47 54.7901 179.077 53.4734C180.4 54.5372 182.153 54.894 183.588 55.786C186.277 57.4808 187.399 60.7415 188.864 63.5662C189.251 64.3128 189.707 65.076 190.405 65.5484C190.123 61.2808 188.693 57.1684 186.265 53.6452C183.837 50.1221 180.502 47.3189 176.612 45.5314Z" fill="#632652" />
    <path opacity="0.1" d="M140.215 63.2061C140.215 63.2061 164.692 32.8122 193.008 63.2061L190.561 56.3972C190.561 56.3972 177.274 37.0178 167.837 41.2002C158.4 45.3827 149.132 48.3593 149.132 48.3593L140.215 63.2061Z" fill="#363732" />
    <path d="M140.215 62.6676C140.215 62.6676 164.692 32.2737 193.008 62.6676L190.561 55.8587C190.561 55.8587 177.274 36.4793 167.837 40.6618C158.4 44.8442 149.132 47.8209 149.132 47.8209L140.215 62.6676Z" fill="#E14B5A" />
    <path opacity="0.1" d="M120.111 128.143C120.111 128.143 114.868 142.111 122.208 154.682C129.548 167.252 115.742 172.492 115.742 172.492" fill="#363732" />
    <path opacity="0.1" d="M205.068 115.573C205.068 115.573 214.158 127.096 208.214 137.397C202.27 147.698 202.62 172.492 202.62 172.492" fill="#363732" />
    <path d="M112.07 182.793H213.109C215.335 182.793 217.469 183.676 219.043 185.248C220.616 186.82 221.501 188.951 221.501 191.174H103.682C103.682 188.952 104.565 186.821 106.138 185.249C107.711 183.677 109.845 182.794 112.07 182.793Z" fill="#535461" />
    <path d="M122.35 125.173H202.832C204.526 125.173 206.204 125.507 207.769 126.154C209.334 126.802 210.756 127.751 211.954 128.947C213.152 130.144 214.102 131.564 214.75 133.127C215.398 134.69 215.732 136.366 215.732 138.058V184.712H109.45V138.058C109.45 134.641 110.809 131.363 113.229 128.947C115.648 126.531 118.929 125.173 122.35 125.173Z" fill="#535461" />
    <path d="M162.502 163.849C165.978 163.849 168.796 161.035 168.796 157.563C168.796 154.09 165.978 151.276 162.502 151.276C159.026 151.276 156.207 154.09 156.207 157.563C156.207 161.035 159.026 163.849 162.502 163.849Z" fill="#F7F7F7" />
    <path opacity="0.1" d="M141.614 48.9606C141.614 48.9606 165.667 24.9494 191.609 48.5212" stroke="#363732" strokeMiterlimit="10" />
    <path d="M197.685 47.431H195.271V61.105H197.685V47.431Z" fill="#6A5C99" />
    <path d="M192.049 56.2783C194.256 56.2783 196.373 57.1541 197.934 58.7129C199.494 60.2717 200.371 62.3859 200.371 64.5904V65.1256C200.371 67.3301 199.494 69.4443 197.934 71.0031C196.373 72.5619 194.256 73.4376 192.049 73.4376V56.2783Z" fill="#FFD037" />
    <path d="M194.196 57.352C194.196 56.3156 193.355 55.4755 192.317 55.4755C191.279 55.4755 190.438 56.3156 190.438 57.352V72.3672C190.438 73.4036 191.279 74.2437 192.317 74.2437C193.355 74.2437 194.196 73.4036 194.196 72.3672V57.352Z" fill="#6A5C99" />
    <path d="M135.29 61.3726H137.704V47.6986H135.29V61.3726Z" fill="#6A5C99" />
    <path d="M140.926 73.7052C138.719 73.7052 136.602 72.8295 135.041 71.2707C133.481 69.7118 132.604 67.5976 132.604 65.3931V64.8579C132.604 63.7664 132.819 62.6855 133.237 61.677C133.656 60.6686 134.269 59.7523 135.041 58.9804C135.814 58.2086 136.732 57.5963 137.741 57.1786C138.751 56.7609 139.833 56.5459 140.926 56.5459V73.7052Z" fill="#FFD037" />
    <path d="M138.779 72.6314C138.779 73.6678 139.62 74.5079 140.658 74.5079C141.696 74.5079 142.537 73.6678 142.537 72.6314V57.6162C142.537 56.5798 141.696 55.7397 140.658 55.7397C139.62 55.7397 138.779 56.5798 138.779 57.6162V72.6314Z" fill="#6A5C99" />
    <path d="M194.986 32.8155C191.715 26.0232 184.59 17.8102 169.233 17.1528V17.1329H169.048L163.607 17.3906V17.4171C148.352 18.1174 141.26 26.3007 137.999 33.0699C135.827 37.6589 134.673 42.6626 134.618 47.7383L136.497 47.692L138.376 47.6491C138.457 43.1303 139.497 38.6801 141.429 34.5929C145.57 26.0958 153.191 21.5797 164.076 21.1601L168.889 20.8925C179.781 21.3088 187.405 25.8315 191.543 34.3253C193.478 38.414 194.52 42.8666 194.603 47.3881L196.481 47.431L198.36 47.4773C198.306 42.4044 197.155 37.403 194.986 32.8155Z" fill="#FFD037" />
    <path d="M280.817 191.283H24.5693V260H280.817V191.283Z" fill="#D6D6E3" />
    <path opacity="0.1" d="M280.817 195.908H24.5693V204.828H280.817V195.908Z" fill="#363732" />
    <path d="M298 190.292H7.37939V199.212H298V190.292Z" fill="#D6D6E3" />
  </g>
  <defs>
    <linearGradient id="paint0_linear" x1="152.691" y1="194.752" x2="152.691" y2="15.5273" gradientUnits="userSpaceOnUse">
      <stop stopColor="#808080" stopOpacity="0.25" />
      <stop offset="0.54" stopColor="#808080" stopOpacity="0.12" />
      <stop offset="1" stopColor="#808080" stopOpacity="0.1" />
    </linearGradient>
    <clipPath id="clip0">
      <rect width="298" height="260" fill="white" />
    </clipPath>
  </defs>
</svg>
