<svg width="50" height="39" viewBox="0 0 50 39" fill="none"
  xmlns="http://www.w3.org/2000/svg">
  <path d="M45.6055 0H4.39453C1.97441 0 0 1.97227 0 4.39453V33.6914C0 36.1055 1.96563 38.0859 4.39453 38.0859H45.6055C48.0195 38.0859 50 36.1203 50 33.6914V4.39453C50 1.98047 48.0344 0 45.6055 0ZM44.9986 2.92969L25.0932 22.8353L5.01553 2.92969H44.9986ZM2.92969 33.0848V4.98721L17.039 18.9755L2.92969 33.0848ZM5.00127 35.1562L19.1194 21.0381L24.0664 25.9426C24.6391 26.5104 25.5632 26.5085 26.1335 25.9381L30.957 21.1145L44.9987 35.1562H5.00127ZM47.0703 33.0847L33.0286 19.043L47.0703 5.00117V33.0847Z" fill="#F7F7F7" />
</svg>
  