<svg width="396" height="324" viewBox="0 0 396 324" fill="none"
  xmlns="http://www.w3.org/2000/svg">
  <g clipPath="url(#clip0)">
    <path opacity="0.1" d="M386.371 187.821C386.371 188.067 386.371 188.314 386.371 188.556C386.328 192.8 386.077 197.034 385.618 201.257C385.62 201.282 385.62 201.308 385.618 201.334C385.581 201.685 385.541 202.032 385.501 202.383C385.432 202.976 385.36 203.565 385.279 204.158C384.34 211.377 382.786 218.503 380.634 225.457C377.751 234.854 373.675 243.842 368.507 252.199C366.917 254.755 365.223 257.228 363.426 259.619C362.467 260.886 361.488 262.125 360.477 263.343C359.768 264.196 359.045 265.035 358.309 265.861L357.85 266.369C353.978 270.627 349.804 274.599 345.36 278.255C338.108 284.275 330.3 289.512 322.367 294.37C321.916 294.648 321.461 294.923 321.005 295.177C320.974 295.2 320.94 295.22 320.905 295.238C310.123 301.766 298.943 307.656 287.424 312.373C274.814 317.55 261.792 321.314 248.432 322.96C229.811 325.252 210.963 323.388 192.454 320.184C177.061 317.535 161.854 313.897 146.927 309.29L144.47 308.52C143.197 308.114 141.925 307.699 140.654 307.277C132.98 304.735 125.393 301.911 117.891 298.804C99.0494 291.033 81.0501 281.354 64.173 269.92C62.0242 268.473 59.9063 266.993 57.8193 265.482C54.9024 263.378 52.0204 261.213 49.1732 258.986L47.4166 257.622C39.9657 251.779 32.9849 245.359 26.5387 238.421C17.8684 228.971 10.4592 218.312 5.58822 206.143C4.82004 204.23 4.11632 202.282 3.47706 200.297L3.41663 200.099C3.09431 199.09 2.79617 198.082 2.5222 197.033C2.11931 195.532 1.76611 194.012 1.4626 192.473C1.39813 192.179 1.34173 191.884 1.28935 191.586C0.326391 186.408 -0.0989135 181.144 0.0202367 175.878C0.121003 171.265 0.660634 166.671 1.63181 162.16C2.62584 157.484 4.15765 152.939 6.19659 148.616C8.03919 144.729 10.3869 141.102 13.1787 137.831C15.1405 135.544 17.3468 133.479 19.758 131.674C24.1294 128.414 28.9762 126.143 34.0003 124.347C36.3612 123.5 38.7544 122.757 41.1597 122.067C42.8639 121.575 44.5762 121.107 46.2805 120.647L51.3086 119.288C54.5317 118.408 57.7549 117.504 60.9297 116.528C69.5838 113.881 78.0647 110.677 85.9091 105.9C87.15 105.146 88.4151 104.319 89.6802 103.431C91.2917 102.309 92.8791 101.091 94.4504 99.7756C96.0378 98.4442 97.593 97.0199 99.0756 95.5109C99.3053 95.2769 99.5309 95.0429 99.7565 94.8048C100.965 93.5299 102.138 92.1944 103.225 90.8064C103.757 90.1286 104.273 89.4387 104.764 88.7366C105.445 87.7643 106.09 86.7758 106.686 85.759C109.676 80.6753 111.521 75.067 111.303 69.1561C111.272 68.1823 111.184 67.211 111.042 66.2471C110.518 62.6844 110.014 59.2065 109.644 55.8053C108.088 41.7362 108.745 28.9784 119.289 16.9913C132.399 2.09104 152.975 -0.947101 171.705 0.243141C225.858 3.67265 275.156 34.6351 318.479 71.4963C322.226 74.681 325.927 77.9088 329.583 81.1796C330.504 82.0027 331.427 82.8312 332.351 83.665C339.2 89.8421 345.945 96.2493 352.226 103.112C352.733 103.669 353.241 104.226 353.741 104.787C354.047 105.134 354.357 105.477 354.659 105.828C356.617 108.047 358.518 110.32 360.36 112.646C365.296 118.823 369.655 125.441 373.382 132.417C379.088 143.363 382.951 155.179 384.816 167.385C385.517 171.818 385.978 176.286 386.198 180.769C386.266 182.088 386.31 183.411 386.335 184.731C386.335 185.154 386.335 185.574 386.335 185.998C386.375 186.611 386.375 187.208 386.371 187.821Z" fill="#FEC576" />
    <path d="M158.732 181.054L152.286 295.959L158.732 296.043L163.97 179.44L158.732 181.054Z" fill="#3F3D56" />
    <path d="M134.961 239.271H55.1884V256.62H134.961V239.271Z" fill="#FEC576" />
    <path d="M140.199 254.599V265.493H57.7951C54.8781 263.389 51.9961 261.224 49.149 258.997V254.599H140.199Z" fill="#3F3D56" />
    <path d="M156.653 229.805C156.427 230.85 156.133 231.883 155.823 232.912C154.909 235.886 153.809 238.819 153.595 241.91C153.309 245.993 154.401 250.742 151.581 253.707C150.855 254.474 149.909 255.047 149.26 255.866C149.16 255.994 149.069 256.129 148.986 256.269C148.406 257.229 148.337 258.4 148.329 259.497C148.336 261.838 148.488 264.175 148.785 266.497C149.739 274.486 151.625 282.491 149.147 290.032C148.698 291.34 148.175 292.621 147.58 293.869C146.371 296.532 145.054 299.158 144.659 302.043C144.369 304.181 144.457 306.384 144.441 308.559C143.168 308.153 141.896 307.739 140.626 307.316C132.952 304.775 125.364 301.95 117.862 298.844C117.883 298.735 117.903 298.622 117.919 298.513C118.495 294.922 117.705 291.25 116.746 287.748C114.732 280.328 111.879 272.981 110.191 265.509C109.512 262.59 109.066 259.622 108.858 256.632C108.809 255.963 108.781 255.289 108.777 254.615C108.757 253.735 108.777 252.856 108.813 251.968C108.898 250.197 108.975 248.095 107.56 247.018C106.783 246.433 105.755 246.332 104.849 245.977C103.1 245.295 101.904 243.713 100.518 242.446C99.8568 241.804 99.0495 241.332 98.1658 241.072C97.2821 240.812 96.3484 240.771 95.4454 240.953C86.3884 243.031 79.7326 250.725 71.3041 254.615C70.9777 254.768 70.6514 254.914 70.321 255.051C69.2307 255.451 68.1931 255.982 67.2308 256.632C66.5547 257.102 66.0643 257.795 65.8449 258.589C65.6313 259.445 65.8167 260.34 65.9214 261.22C66.091 262.65 66.0298 264.098 65.7401 265.509C65.6309 266.055 65.4869 266.594 65.309 267.123C64.9867 268.079 64.5556 269.015 64.1447 269.947C61.9959 268.5 59.878 267.02 57.791 265.509C54.8741 263.405 51.992 261.24 49.1449 259.013L47.4165 257.621C39.9656 251.778 32.9848 245.358 26.5386 238.42C27.3967 235.999 28.6377 233.747 29.2339 231.266C29.5724 229.842 29.6973 228.361 30.1646 226.977C30.7036 225.542 31.4531 224.196 32.3886 222.983C35.8146 218.198 39.998 214.006 44.7735 210.572C49.7654 206.989 55.5308 204.116 60.0231 200.049C61.8461 198.451 63.4176 196.586 64.6845 194.518C64.7611 194.393 64.8336 194.26 64.8981 194.114C65.2487 193.384 65.4916 192.607 65.6192 191.806C65.9416 189.999 65.8932 188.014 66.0544 186.279C71.5268 187.228 77.1058 187.396 82.6254 186.779C89.0515 186.057 95.3367 184.27 101.763 183.576C102.246 183.519 102.734 183.475 103.221 183.434C105.28 183.269 107.343 183.233 109.41 183.257C111.138 183.257 112.867 183.334 114.595 183.39L133.624 184.036C135.731 184.108 137.882 184.189 139.844 184.96C142.173 185.875 144.038 187.699 145.533 189.704C145.723 189.963 145.912 190.221 146.089 190.487C147.319 192.284 148.305 194.236 149.022 196.293C149.099 196.503 149.171 196.697 149.24 196.927C149.421 197.487 149.578 198.052 149.719 198.625C149.828 199.073 149.925 199.521 150.013 199.973C150.457 202.208 150.718 204.492 151.419 206.65C151.468 206.808 151.52 206.965 151.577 207.118C152.419 209.483 153.817 211.601 154.872 213.872C155.633 215.517 156.214 217.239 156.605 219.009C157.394 222.562 157.41 226.245 156.653 229.805Z" fill="#35323E" />
    <path d="M98.8136 85.415C97.1134 84.0593 94.6477 85.0519 92.6574 85.9274C90.9887 86.6655 89.2709 87.287 87.5165 87.7874C87.1574 87.9258 86.7681 87.9662 86.3884 87.9044C85.5826 87.7107 85.2442 86.7545 84.6439 86.1735C83.6004 85.1689 81.8921 85.4069 80.5464 85.9516C79.2008 86.4963 77.8712 87.2831 76.4289 87.162C74.8898 87.041 73.5522 85.9032 71.997 85.8669C69.2574 85.8023 66.9568 89.1834 64.3662 88.2877C62.7869 87.743 61.546 85.6853 59.9908 86.2704C58.7821 86.7303 58.6733 88.4047 57.9441 89.4981C57.0859 90.7731 55.4139 91.1322 53.9837 91.6971C49.4753 93.4804 46.4898 98.5117 47.0781 103.329C47.4044 105.988 48.6896 108.425 49.5398 110.963C52.0619 118.342 51.1956 126.666 54.3745 133.783C54.7774 133.404 55.003 133.263 55.3938 132.888C54.3887 134.975 54.1948 137.362 54.8499 139.585C55.1843 140.703 55.7282 141.744 56.1392 142.837C56.566 144.063 56.9106 145.317 57.1706 146.589L60.6757 162.075C62.0456 168.127 63.4194 174.179 63.6571 180.376C63.8051 184.406 63.497 188.439 62.7385 192.4C69.0881 191.347 74.8979 188.526 81.3321 188.563C83.693 188.563 86.0338 188.966 88.3747 189.289C95.1994 190.245 102.083 190.713 108.975 190.689C110.046 190.75 111.12 190.599 112.133 190.245C113.02 189.866 113.745 189.192 114.583 188.704C116.223 187.735 118.209 187.493 120.098 187.493C128.716 187.336 137.02 190.495 145.582 191.609C148.962 184.504 149.163 175.99 146.569 168.562C145.799 166.355 144.764 164.205 144.457 161.885C144.334 160.459 144.302 159.026 144.361 157.596C144.347 153.935 143.689 150.304 142.415 146.872C141.915 145.528 141.315 144.16 141.367 142.728C141.42 141.296 142.125 139.96 142.818 138.693C144.224 136.111 145.638 133.505 147.624 131.326C149.659 129.075 152.205 127.36 154.723 125.677L160.94 121.497C160.09 116.119 158.994 110.454 156.717 105.508C154.441 100.561 151.037 96.0142 146.432 93.1213C144.879 92.186 143.254 91.3764 141.573 90.7005C139.22 89.7079 136.77 88.8324 134.22 88.6831C131.319 88.5177 128.463 89.2964 125.598 89.7806C116.581 91.3017 105.969 91.1161 98.8136 85.415Z" fill="#FEC576" />
    <path d="M166.79 178.746L163.833 182.486L158.257 189.535L151.81 197.681L150.009 199.957H146.516L60.019 200.057L5.85 200.118H3.43264C3.11032 199.109 2.81218 198.101 2.53821 197.052C2.13532 195.551 1.78212 194.031 1.4786 192.492C1.41414 192.198 1.35774 191.903 1.30536 191.605L20.9585 178.738L28.3476 178.698L50.9499 178.569L63.5726 178.496H65.8771H67.3235L75.7359 178.452L139.852 178.084L143.132 178.064H144.554L148.321 178.044L162.338 177.963L165.029 176.939L165.227 177.148L166.79 178.746Z" fill="#3F3D56" />
    <path d="M165.581 176.729L165.247 177.132L163.047 179.727L158.518 185.081L149.022 196.293L64.8981 194.143L1.46247 192.529C1.39801 192.234 1.34161 191.94 1.28923 191.641C0.326268 186.463 -0.0990356 181.199 0.0201147 175.934L7.05464 172.327L8.66621 171.496L21.2083 165.04L32.2153 159.392L60.9255 163.128L67.2832 163.955L70.1598 164.326L74.3701 164.875L74.7246 164.923L140.747 173.497L148.043 174.445L152.326 175.002L165.525 176.721L165.581 176.729Z" fill="#504F60" />
    <path d="M151.883 196.095L151.814 197.681L151.411 206.634L149.244 255.858L148.785 266.497L147.576 293.869L146.895 309.33L144.437 308.559C143.164 308.153 141.892 307.739 140.622 307.316L146.516 199.993L146.641 197.742L149.236 196.935L151.883 196.095Z" fill="#3F3D56" />
    <path d="M6.03533 195.978L5.85403 200.122L5.58811 206.174C4.81993 204.262 4.11621 202.313 3.47695 200.328L3.41652 200.13C3.0942 199.121 2.79606 198.113 2.52209 197.064L6.03533 195.978Z" fill="#3F3D56" />
    <path d="M111.392 134.973C121.628 134.973 129.925 123.774 129.925 109.958C129.925 96.1426 121.628 84.9429 111.392 84.9429C101.156 84.9429 92.8589 96.1426 92.8589 109.958C92.8589 123.774 101.156 134.973 111.392 134.973Z" fill="#A1616A" />
    <path opacity="0.1" d="M111.392 134.973C121.628 134.973 129.925 123.774 129.925 109.958C129.925 96.1426 121.628 84.9429 111.392 84.9429C101.156 84.9429 92.8589 96.1426 92.8589 109.958C92.8589 123.774 101.156 134.973 111.392 134.973Z" fill="black" />
    <path d="M114.011 120.65C128.252 120.65 139.796 109.089 139.796 94.828C139.796 80.5668 128.252 69.0058 114.011 69.0058C99.7701 69.0058 88.2256 80.5668 88.2256 94.828C88.2256 109.089 99.7701 120.65 114.011 120.65Z" fill="#A1616A" />
    <path d="M114.522 55.0295C112.948 55.1552 111.385 55.3939 109.845 55.7436C105.768 56.7362 102.242 58.9391 98.8097 61.1017C97.2706 62.0741 95.6872 63.0868 94.7324 64.5151C93.016 67.0772 93.6808 70.3372 92.7179 73.1817C92.2183 74.6423 91.2997 75.9535 90.5221 77.3132C88.3828 81.0413 87.2627 85.1366 86.1628 89.1915C85.9372 90.0307 85.8727 91.1685 86.7873 91.4912C87.3139 91.6008 87.8618 91.5386 88.3505 91.3137C91.2393 90.3575 94.9096 90.0831 97.053 92.0238C99.1964 93.9645 99.0151 97.4062 101.565 98.8829C104.486 100.59 109.047 98.5278 111.698 100.541C112.834 101.405 113.245 102.788 114.176 103.829C116.344 106.25 120.514 106.133 123.982 105.645C125.973 105.363 128.414 105.173 129.623 106.573C130.203 107.235 130.368 108.143 131.041 108.74C132.25 109.821 134.462 109.272 135.642 108.163C136.823 107.053 137.387 105.552 138.37 104.306C140.284 101.885 143.648 100.565 145.622 98.1727C147.274 96.1554 147.773 93.6297 148.225 91.1927L149.905 82.1589C150.585 78.4954 151.206 74.493 149.147 71.2652C148.414 70.1032 147.362 69.1026 146.73 67.9002C146.307 67.0933 146.069 66.242 145.578 65.4794C144.995 64.685 144.298 63.9808 143.511 63.3894L139.534 60.0931C138.175 58.9013 136.721 57.8218 135.187 56.8653C129.51 53.5528 121.009 54.4243 114.522 55.0295Z" fill="#464353" />
    <path d="M29.5925 121.546C28.6377 122.563 27.7553 123.66 26.732 124.612C25.8318 125.414 24.8904 126.168 23.9117 126.872C22.3324 128.055 20.788 129.28 19.2785 130.547C17.7036 131.794 16.2786 133.22 15.032 134.796C12.8805 137.689 11.8612 141.288 9.84674 144.278C8.06595 146.928 5.55592 149.022 3.74692 151.653C2.95332 152.759 2.36385 153.998 2.00642 155.312C1.73963 156.584 1.61932 157.883 1.64785 159.182C1.61159 161.312 1.57936 163.467 2.01448 165.553C2.44961 167.639 3.40446 169.688 5.04021 171.056C6.55912 172.327 8.52121 172.912 10.443 173.396C11.4341 173.642 12.5058 173.872 13.4486 173.481C14.1385 173.132 14.7373 172.626 15.1972 172.004L20.1004 166.355C23.3799 162.563 26.7884 158.69 31.2887 156.47C32.6989 155.78 34.1855 155.26 35.5997 154.59C41.5947 151.697 45.8332 145.774 47.477 139.319C47.8799 137.741 48.1377 136.131 48.3996 134.522L49.1087 130.108C49.1632 129.886 49.1632 129.655 49.1087 129.434C48.9977 129.185 48.819 128.972 48.593 128.82C45.1777 126.058 41.98 123.037 39.0283 119.783C38.3273 119.008 37.6706 117.947 36.8607 117.297C35.8454 116.49 35.922 116.551 34.7012 117.297C32.8233 118.488 31.1063 119.916 29.5925 121.546Z" fill="#A1616A" />
    <path d="M63.1334 150.919C63.0926 150.825 63.0334 150.74 62.9592 150.67C62.885 150.6 62.7974 150.546 62.7016 150.51C62.6059 150.475 62.504 150.459 62.402 150.464C62.3001 150.469 62.2002 150.495 62.1083 150.539C62.0165 150.584 61.9346 150.647 61.8676 150.724C61.8006 150.801 61.7499 150.891 61.7184 150.988C61.687 151.085 61.6754 151.188 61.6846 151.29C61.6937 151.391 61.7233 151.49 61.7716 151.58L61.3687 151.778L73.383 176.438L75.5546 175.377L63.5403 150.701L63.1334 150.919Z" fill="#3F3D56" />
    <path opacity="0.04" d="M29.5925 121.546C28.6377 122.563 27.7553 123.66 26.732 124.612C25.8318 125.414 24.8904 126.168 23.9117 126.872C22.3324 128.055 20.788 129.28 19.2785 130.547C17.7036 131.794 16.2786 133.22 15.032 134.796C12.8805 137.689 11.8612 141.288 9.84674 144.278C8.06595 146.928 5.55592 149.022 3.74692 151.653C2.95332 152.759 2.36385 153.998 2.00642 155.312C1.73963 156.584 1.61932 157.883 1.64785 159.182C1.61159 161.312 1.57936 163.467 2.01448 165.553C2.44961 167.639 3.40446 169.688 5.04021 171.056C6.55912 172.327 8.52121 172.912 10.443 173.396C11.4341 173.642 12.5058 173.872 13.4486 173.481C14.1385 173.132 14.7373 172.626 15.1972 172.004L20.1004 166.355C23.3799 162.563 26.7884 158.69 31.2887 156.47C32.6989 155.78 34.1855 155.26 35.5997 154.59C41.5947 151.697 45.8332 145.774 47.477 139.319C47.8799 137.741 48.1377 136.131 48.3996 134.522L49.1087 130.108C49.1632 129.886 49.1632 129.655 49.1087 129.434C48.9977 129.185 48.819 128.972 48.593 128.82C45.1777 126.058 41.98 123.037 39.0283 119.783C38.3273 119.008 37.6706 117.947 36.8607 117.297C35.8454 116.49 35.922 116.551 34.7012 117.297C32.8233 118.488 31.1063 119.916 29.5925 121.546Z" fill="black" />
    <path d="M168.486 166.993C168.446 169.567 168.345 172.218 167.277 174.566C166.818 175.583 166.105 176.583 165.037 176.918C164.391 177.068 163.722 177.092 163.067 176.991C155.163 176.295 147.198 176.928 139.502 178.863C141.557 174.748 140.376 169.813 140.944 165.246C141.101 163.999 141.387 162.773 141.496 161.522C141.899 157.084 140.001 152.775 139.131 148.393C138.376 144.6 138.376 140.695 139.131 136.902C139.279 135.926 139.615 134.987 140.118 134.138C140.708 133.312 141.484 132.636 142.383 132.165C145.646 130.305 149.494 130.091 153.16 130.338C155.63 130.503 160.581 130.269 162.64 131.79C164.892 133.456 165.605 139.053 166.214 141.639C167.125 145.605 167.744 149.633 168.067 153.691C168.462 158.113 168.546 162.555 168.486 166.993Z" fill="#A1616A" />
    <path d="M24.1656 175.926L38.6698 185.609L103.938 183.188L60.8289 175.926H24.1656Z" fill="white" />
    <path d="M43.2909 98.9878C40.9098 101.09 38.8913 103.567 36.6351 105.806C33.5409 108.881 30.0236 111.495 26.5225 114.098C27.7778 114.449 28.9205 115.121 29.8386 116.048C30.7567 116.974 31.4188 118.123 31.7601 119.383C31.9132 119.976 31.9897 120.594 32.163 121.175C32.5659 122.551 33.4522 123.737 34.4031 124.806C38.4884 129.418 44.2055 132.831 46.6148 138.524C46.6934 138.801 46.8639 139.043 47.0982 139.21C47.2943 139.297 47.512 139.322 47.7227 139.283C49.9024 139.053 51.5704 137.293 52.9603 135.583C55.8612 131.951 58.3793 127.941 59.8095 123.511C61.2398 119.081 61.4694 114.183 59.9102 109.793C59.1327 107.606 57.932 105.597 56.7395 103.608C55.6946 101.867 54.6525 100.13 53.613 98.3947C53.0691 97.4788 52.3761 95.6188 51.3085 95.1669C49.0039 94.1743 44.7695 97.507 43.2909 98.9878Z" fill="#FEC576" />
    <path d="M161.959 125.064L165.388 133.134C161.655 131.828 157.666 131.43 153.75 131.974C149.834 132.517 146.103 133.987 142.866 136.26C140.912 137.661 139.119 139.42 138.237 141.655C137.801 141.738 137.351 141.696 136.939 141.534C136.526 141.372 136.167 141.096 135.904 140.739C135.388 140.015 135.089 139.158 135.042 138.27C134.724 135.171 135.896 132.133 137.056 129.236C137.596 127.88 138.152 126.496 139.111 125.395C140.07 124.293 141.343 123.567 142.616 122.881C146.678 120.632 150.932 118.75 155.328 117.257C157.181 116.656 159.123 116.668 160.162 118.403C161.367 120.473 161.016 122.861 161.959 125.064Z" fill="#FEC576" />
    <path d="M24.2501 149.277C25.1083 149.962 25.8617 150.773 26.744 151.427C27.6772 152.076 28.6701 152.634 29.7093 153.093L33.6819 155.006C34.9129 155.647 36.201 156.171 37.5295 156.571C39.2297 157.027 41.0145 157.072 42.7228 157.495C44.8783 158.028 46.8484 159.137 48.9717 159.779C51.0949 160.42 53.5808 160.525 55.3535 159.19C56.4615 158.355 57.2995 156.975 58.6733 156.769C59.5597 156.652 60.4138 157.08 61.2035 157.495L71.5418 162.938C72.9358 163.672 74.4104 164.487 75.1396 165.887C75.8688 167.288 75.3773 169.414 73.8423 169.777C73.3073 169.838 72.7692 169.869 72.2307 169.87C71.6989 169.934 71.1187 170.249 71.0462 170.786C71.0435 171.119 71.1312 171.447 71.3 171.734C71.7634 172.799 71.9003 174.074 71.3605 175.107C70.8206 176.14 69.4951 176.781 68.4355 176.317C68.6168 177.879 66.9206 178.972 65.4097 179.388C61.5984 180.433 57.5573 179.791 53.6614 179.129C52.1304 178.871 50.5752 178.605 49.1812 177.919C48.5124 177.592 47.8919 177.173 47.2151 176.87C45.3577 176.043 43.2466 176.152 41.216 176.188C31.8245 176.354 22.5137 174.611 13.2793 172.876C11.567 172.553 9.80639 172.21 8.34389 171.262C5.52364 169.422 4.47611 165.645 4.93944 162.305C5.40277 158.964 7.09492 155.938 8.75887 153.001L10.9144 149.196C11.1961 148.613 11.5905 148.092 12.0747 147.663C15.2455 145.238 21.5346 147.09 24.2501 149.277Z" fill="#A1616A" />
    <path opacity="0.04" d="M24.2501 149.277C25.1083 149.962 25.8617 150.773 26.744 151.427C27.6772 152.076 28.6701 152.634 29.7093 153.093L33.6819 155.006C34.9129 155.647 36.201 156.171 37.5295 156.571C39.2297 157.027 41.0145 157.072 42.7228 157.495C44.8783 158.028 46.8484 159.137 48.9717 159.779C51.0949 160.42 53.5808 160.525 55.3535 159.19C56.4615 158.355 57.2995 156.975 58.6733 156.769C59.5597 156.652 60.4138 157.08 61.2035 157.495L71.5418 162.938C72.9358 163.672 74.4104 164.487 75.1396 165.887C75.8688 167.288 75.3773 169.414 73.8423 169.777C73.3073 169.838 72.7692 169.869 72.2307 169.87C71.6989 169.934 71.1187 170.249 71.0462 170.786C71.0435 171.119 71.1312 171.447 71.3 171.734C71.7634 172.799 71.9003 174.074 71.3605 175.107C70.8206 176.14 69.4951 176.781 68.4355 176.317C68.6168 177.879 66.9206 178.972 65.4097 179.388C61.5984 180.433 57.5573 179.791 53.6614 179.129C52.1304 178.871 50.5752 178.605 49.1812 177.919C48.5124 177.592 47.8919 177.173 47.2151 176.87C45.3577 176.043 43.2466 176.152 41.216 176.188C31.8245 176.354 22.5137 174.611 13.2793 172.876C11.567 172.553 9.80639 172.21 8.34389 171.262C5.52364 169.422 4.47611 165.645 4.93944 162.305C5.40277 158.964 7.09492 155.938 8.75887 153.001L10.9144 149.196C11.1961 148.613 11.5905 148.092 12.0747 147.663C15.2455 145.238 21.5346 147.09 24.2501 149.277Z" fill="black" />
    <path d="M147.237 156.248C145.138 157.241 142.729 157.338 140.537 158.1C138.346 158.863 136.484 160.235 134.474 161.352C129.236 164.282 123.193 165.387 117.258 166.44C113.66 167.086 110.006 167.731 106.38 167.578C101.473 167.368 96.7589 165.73 92.0047 164.495C87.2506 163.261 82.1782 162.43 77.4683 163.818C75.0089 164.568 72.7606 165.887 70.9056 167.67C69.0506 169.453 67.6412 171.648 66.7917 174.078C65.8046 176.979 65.6676 180.106 65.857 183.164C66.8481 183.894 68.234 182.882 68.7739 181.772C69.3138 180.663 69.6079 179.303 70.6554 178.657C72.4725 179.275 72.9156 181.699 74.4144 182.898C75.3491 183.648 76.5981 183.846 77.7866 184.015L83.9106 184.887C85.3852 185.097 87.0975 185.238 88.1652 184.197C88.6849 183.693 88.971 182.987 89.4464 182.446C90.4214 181.365 92.0491 181.179 93.4995 181.324C98.028 181.776 102.275 184.717 106.771 184.019C108.318 183.781 109.756 183.12 111.231 182.599C119.97 179.509 129.679 181.389 138.773 179.618C142.242 178.944 145.582 177.749 148.881 176.491C150.674 175.809 152.487 175.095 154.018 173.941C155.469 172.824 156.612 171.357 157.342 169.677C158.072 167.996 158.365 166.158 158.192 164.334C157.855 161.554 156.47 159.008 154.32 157.217C153.611 156.612 152.681 155.454 151.83 155.074C150.207 154.36 148.615 155.599 147.237 156.248Z" fill="#A1616A" />
    <g opacity="0.1">
      <path opacity="0.1" d="M135.465 104.705C134.792 104.108 134.627 103.2 134.047 102.538C132.838 101.138 130.397 101.328 128.406 101.61C124.937 102.099 120.751 102.212 118.6 99.7947C117.669 98.7538 117.258 97.3739 116.122 96.5064C113.471 94.4891 108.91 96.5549 105.989 94.8482C103.439 93.3594 103.604 89.9056 101.477 87.9891C99.3495 86.0727 95.6631 86.3228 92.7743 87.279C92.2856 87.5039 91.7377 87.5661 91.2111 87.4566C90.2965 87.1338 90.361 85.996 90.5866 85.1568C91.6865 81.1019 92.8065 77.0066 94.9459 73.2786C95.7235 71.9189 96.6421 70.6076 97.1417 69.147C98.016 66.589 97.5688 63.6961 98.717 61.2753C97.4841 62.0822 96.2996 62.9618 95.5382 64.0996C93.8218 66.6616 94.4866 69.9217 93.5237 72.7661C93.0241 74.2267 92.1055 75.538 91.3279 76.8977C89.1886 80.6258 88.0685 84.721 86.9686 88.7759C86.743 89.6151 86.6785 90.7529 87.5931 91.0757C88.1197 91.1852 88.6676 91.123 89.1563 90.8982C92.0451 89.9419 95.7154 89.6676 97.8588 91.6083C100.002 93.549 99.8209 96.9906 102.371 98.4673C105.292 100.174 109.853 98.1122 112.504 100.126C113.64 100.989 114.051 102.373 114.982 103.414C117.149 105.835 121.319 105.718 124.788 105.229C126.779 104.947 129.22 104.757 130.429 106.157C131.009 106.819 131.174 107.727 131.847 108.324C133.056 109.405 135.268 108.857 136.448 107.747C137.205 106.958 137.853 106.07 138.374 105.108C137.326 105.427 136.21 105.379 135.465 104.705Z" fill="black" />
      <path opacity="0.1" d="M142.806 100.267C142.546 100.602 142.305 100.95 142.084 101.312C143.632 100.206 145.271 99.1734 146.428 97.7653C146.728 97.4009 146.997 97.0122 147.233 96.6033C145.626 97.7572 143.95 98.8183 142.806 100.267Z" fill="black" />
    </g>
    <path d="M224.202 180.162L225.411 295.959L231.051 295.152L229.843 180.162H224.202Z" fill="#3F3D56" />
    <path d="M258.045 201.143L259.254 316.939L264.894 316.132L263.686 201.143H258.045Z" fill="#3F3D56" />
    <path d="M363.414 259.638L363.39 257.415V256.092L363.176 235.724L362.842 203.882L362.786 201.135H357.145L357.173 203.782L357.35 220.836L357.427 228.22L357.492 234.199L357.596 244.536L357.661 250.633V251.278L357.745 259.291L357.818 266.356L358.277 265.848C359.016 265.022 359.738 264.183 360.445 263.33L363.414 259.638Z" fill="#3F3D56" />
    <path d="M251.8 219.904L248.577 224.73L251.8 246.715L279.197 254.224H323.515L350.106 255.833L362.773 247.151L360.582 232.238L350.912 219.904H251.8Z" fill="#FEC576" />
    <path d="M248.577 224.73L246.966 238.133C246.966 238.133 238.505 264.411 306.594 262.801C374.683 261.192 362.999 255.829 362.999 255.829L362.596 240.28C362.596 240.28 364.969 247.639 330.365 246.642C295.76 245.646 263.484 242.426 263.484 242.426C263.484 242.426 251.398 244.568 248.577 224.73Z" fill="#3F3D56" />
    <path d="M305.305 104.592C301.421 106.363 298.48 109.797 296.509 113.593C294.539 117.39 293.431 121.558 292.34 125.698C291.187 130.063 290.031 134.441 289.435 138.915C288.371 146.872 289.169 155.236 292.819 162.381C296.469 169.527 303.214 175.292 311.11 176.668C314.16 177.205 317.295 177.096 320.377 176.777C325.948 176.186 331.436 174.975 336.738 173.166C342.278 171.29 348.044 168.401 350.509 163.079C351.94 159.993 352.06 156.474 351.992 153.077C351.802 143.818 350.405 134.623 347.838 125.726C347.093 123.144 346.227 120.541 344.647 118.367C343.068 116.192 340.908 114.598 338.705 113.121C329.281 106.767 316.896 99.3146 305.305 104.592Z" fill="#FBBEBE" />
    <path opacity="0.05" d="M305.305 104.592C301.421 106.363 298.48 109.797 296.509 113.593C294.539 117.39 293.431 121.558 292.34 125.698C291.187 130.063 290.031 134.441 289.435 138.915C288.371 146.872 289.169 155.236 292.819 162.381C296.469 169.527 303.214 175.292 311.11 176.668C314.16 177.205 317.295 177.096 320.377 176.777C325.948 176.186 331.436 174.975 336.738 173.166C342.278 171.29 348.044 168.401 350.509 163.079C351.94 159.993 352.06 156.474 351.992 153.077C351.802 143.818 350.405 134.623 347.838 125.726C347.093 123.144 346.227 120.541 344.647 118.367C343.068 116.192 340.908 114.598 338.705 113.121C329.281 106.767 316.896 99.3146 305.305 104.592Z" fill="black" />
    <path d="M300.941 155.377C302.066 156.924 303.425 158.286 304.97 159.412C308.806 162.067 313.729 162.426 318.387 162.571C322.125 162.684 326.412 162.47 328.757 159.549C329.813 158.234 330.288 156.555 330.715 154.921C333.351 144.887 335.223 134.667 336.315 124.35L346.984 124.386C351.601 144.185 351.222 164.766 350.82 185.097L350.235 214.744L343.362 214.014C327.041 212.283 310.695 210.552 294.286 210.253C284.671 210.076 275.053 210.394 265.471 211.205L280.438 166.638C282.38 160.844 284.342 154.974 284.797 148.885C285.454 140.053 282.98 130.729 286.409 122.559C286.683 121.901 287.029 121.219 287.654 120.876C288.278 120.533 289.068 120.618 289.785 120.711C291.139 120.892 295.277 120.711 296.26 121.578C297.71 122.837 296.751 123.027 296.24 125.056C295.325 128.687 294.459 132.048 294.471 135.833C294.483 142.704 296.61 149.958 300.941 155.377Z" fill="#FEC576" />
    <path d="M363.414 259.638C365.211 257.25 366.904 254.776 368.494 252.218C367.689 250.491 366.802 248.805 366.097 247.042C365.018 244.339 364.397 241.474 363.785 238.629C363.575 237.661 363.367 236.693 363.16 235.724C360.904 225.19 358.785 214.506 358.346 203.826C358.305 202.938 358.28 202.051 358.269 201.163C358.269 201.034 358.269 200.909 358.269 200.76C358.269 199.787 358.269 198.815 358.269 197.846C358.317 195.426 358.471 192.985 358.749 190.556C358.801 190.08 358.861 189.604 358.926 189.127C358.926 189.023 358.95 188.922 358.966 188.817L386.363 187.816L388.667 187.731C390.251 187.675 391.927 187.586 393.232 186.686C395.428 185.177 395.686 182.083 395.649 179.424C395.516 172.704 394.755 166.01 393.377 159.432C392.338 154.485 390.855 149.43 387.527 145.629C384.796 142.506 380.839 140.235 379.417 136.349C378.889 134.905 378.756 133.319 378.071 131.939C377.386 130.559 376.254 129.547 375.187 128.482C371.429 124.753 368.312 120.429 365.96 115.683C364.329 112.391 362.56 108.76 360.429 106.484C360.324 106.367 360.219 106.258 360.11 106.153C358.297 104.358 356.222 103.571 353.765 104.794C353.323 105.016 352.902 105.278 352.508 105.576C351.632 106.247 350.831 107.01 350.119 107.852C347.636 110.711 345.458 113.821 343.62 117.132C342.327 119.463 341.218 121.891 340.3 124.394C339.576 126.372 338.977 128.393 338.507 130.446C338.161 131.968 337.887 133.505 337.669 135.046C336.863 140.84 336.863 146.747 336.976 152.613C337.097 158.004 337.335 163.406 337.822 168.776C337.943 170.075 338.077 171.373 338.225 172.67C338.521 175.233 338.886 177.789 339.321 180.336C339.494 181.308 339.672 182.281 339.869 183.249C339.917 183.507 339.97 183.765 340.022 184.019L340.046 184.128C340.578 186.379 340.991 188.657 341.283 190.951C341.315 191.239 341.339 191.525 341.356 191.811C341.423 193.129 341.413 194.451 341.323 195.769C341.231 197.326 341.086 198.879 341.013 200.437C341.013 200.711 341.013 200.981 340.985 201.244C340.965 202.03 340.985 202.817 340.985 203.604C341.067 205.486 341.29 207.36 341.654 209.208C342.333 212.647 343.507 215.968 345.139 219.069C345.292 219.36 345.449 219.646 345.606 219.928C347.649 223.584 350.227 226.937 352.117 230.677C353.747 234.043 354.964 237.593 355.743 241.252C356.012 242.46 356.267 243.67 356.508 244.883C356.883 246.82 357.218 248.773 357.56 250.725C357.592 250.919 357.628 251.129 357.665 251.306C358.12 253.897 358.599 256.475 359.216 259.005C359.574 260.477 359.977 261.93 360.449 263.358L363.414 259.638Z" fill="#464353" />
    <path d="M358.031 227.837C358.031 228.2 358.007 228.563 357.991 228.93C357.919 230.7 357.756 232.466 357.504 234.219C357.17 236.613 356.585 238.965 355.759 241.236C355.212 242.729 354.515 244.163 353.68 245.517C352.94 246.718 352.072 247.837 351.093 248.853C348.676 251.371 345.195 252.174 341.827 253.235C340.277 253.684 338.779 254.297 337.359 255.063C337.105 255.204 336.855 255.357 336.613 255.519L332.399 258.315C331.086 259.182 329.744 260.082 328.842 261.369C328.694 261.588 328.559 261.816 328.439 262.051C327.868 263.236 327.451 264.488 327.198 265.779C325.006 274.922 322.81 284.072 321.308 293.352C321.207 293.966 321.11 294.583 321.005 295.2L320.969 295.394C320.951 295.348 320.929 295.303 320.905 295.261C310.123 301.789 298.943 307.68 287.424 312.396L284.922 291.416C284.661 289.71 284.575 287.982 284.664 286.259C284.902 283.544 286.006 280.97 286.304 278.262C286.587 275.612 286.086 272.937 284.866 270.568C284.39 269.648 283.794 268.745 283.685 267.716C283.577 266.687 284.169 265.747 285.2 265.642C286.006 264.746 286.071 263.524 285.833 262.313C285.707 261.681 285.518 261.064 285.269 260.469C284.584 258.783 283.718 256.947 284.306 255.224C284.461 254.912 284.531 254.564 284.507 254.215C284.512 254.194 284.512 254.172 284.507 254.151C284.37 253.699 283.834 253.501 283.556 253.118C283.033 252.404 283.556 251.432 283.879 250.608C284.192 249.724 284.374 248.798 284.419 247.861C284.463 247.34 284.495 246.816 284.552 246.299C284.63 245.6 284.755 244.908 284.926 244.226C285.905 240.36 288.259 236.986 291.546 234.736C293.113 233.679 294.858 232.908 296.457 231.912C298.096 230.805 299.66 229.592 301.139 228.28C304.687 225.322 308.376 222.532 312.206 219.912C316.325 217.096 320.591 214.502 324.986 212.141C325.926 211.633 326.866 211.138 327.806 210.657C328.83 210.119 329.86 209.609 330.896 209.128C334.216 207.542 337.983 208.135 341.654 209.192C343.193 209.632 344.712 210.156 346.178 210.632C347.61 211.099 348.988 211.718 350.288 212.48C353.539 214.393 356.226 217.217 357.342 220.784C357.344 220.807 357.344 220.83 357.342 220.852C358.051 223.088 358.096 225.484 358.031 227.837Z" fill="#F86D70" />
    <path opacity="0.1" d="M358.031 227.837C358.031 228.2 358.007 228.563 357.991 228.93C357.919 230.7 357.756 232.466 357.504 234.219C357.17 236.613 356.585 238.965 355.759 241.236C355.212 242.729 354.515 244.163 353.68 245.517C352.94 246.718 352.072 247.837 351.093 248.853C348.676 251.371 345.195 252.174 341.827 253.235C340.277 253.684 338.779 254.297 337.359 255.063C337.105 255.204 336.855 255.357 336.613 255.519L332.399 258.315C331.086 259.182 329.744 260.082 328.842 261.369C328.694 261.588 328.559 261.816 328.439 262.051C327.868 263.236 327.451 264.488 327.198 265.779C325.006 274.922 322.81 284.072 321.308 293.352C321.207 293.966 321.11 294.583 321.005 295.2L320.969 295.394C320.951 295.348 320.929 295.303 320.905 295.261C310.123 301.789 298.943 307.68 287.424 312.396L284.922 291.416C284.661 289.71 284.575 287.982 284.664 286.259C284.902 283.544 286.006 280.97 286.304 278.262C286.587 275.612 286.086 272.937 284.866 270.568C284.39 269.648 283.794 268.745 283.685 267.716C283.577 266.687 284.169 265.747 285.2 265.642C286.006 264.746 286.071 263.524 285.833 262.313C285.707 261.681 285.518 261.064 285.269 260.469C284.584 258.783 283.718 256.947 284.306 255.224C284.461 254.912 284.531 254.564 284.507 254.215C284.512 254.194 284.512 254.172 284.507 254.151C284.37 253.699 283.834 253.501 283.556 253.118C283.033 252.404 283.556 251.432 283.879 250.608C284.192 249.724 284.374 248.798 284.419 247.861C284.463 247.34 284.495 246.816 284.552 246.299C284.63 245.6 284.755 244.908 284.926 244.226C285.905 240.36 288.259 236.986 291.546 234.736C293.113 233.679 294.858 232.908 296.457 231.912C298.096 230.805 299.66 229.592 301.139 228.28C304.687 225.322 308.376 222.532 312.206 219.912C316.325 217.096 320.591 214.502 324.986 212.141C325.926 211.633 326.866 211.138 327.806 210.657C328.83 210.119 329.86 209.609 330.896 209.128C334.216 207.542 337.983 208.135 341.654 209.192C343.193 209.632 344.712 210.156 346.178 210.632C347.61 211.099 348.988 211.718 350.288 212.48C353.539 214.393 356.226 217.217 357.342 220.784C357.344 220.807 357.344 220.83 357.342 220.852C358.051 223.088 358.096 225.484 358.031 227.837Z" fill="black" />
    <path d="M319.777 161.005C319.736 160.912 319.676 160.827 319.602 160.757C319.528 160.687 319.44 160.632 319.345 160.597C319.249 160.562 319.147 160.546 319.045 160.551C318.943 160.556 318.843 160.581 318.751 160.626C318.66 160.671 318.578 160.733 318.511 160.81C318.444 160.888 318.393 160.977 318.362 161.075C318.33 161.172 318.319 161.275 318.328 161.376C318.337 161.478 318.366 161.577 318.415 161.667L318.012 161.865L330.026 186.525L332.198 185.464L320.183 160.788L319.777 161.005Z" fill="#3F3D56" />
    <path d="M334.796 135.175C349.037 135.175 360.582 123.614 360.582 109.353C360.582 95.0918 349.037 83.5308 334.796 83.5308C320.556 83.5308 309.011 95.0918 309.011 109.353C309.011 123.614 320.556 135.175 334.796 135.175Z" fill="#FBBEBE" />
    <path d="M368.829 93.3674C368.708 91.3147 368.403 89.277 367.918 87.279C366.403 80.7549 363.636 74.3316 358.869 69.6473C358.576 68.502 358.225 67.3722 357.818 66.2622C357.81 66.2347 357.801 66.2077 357.79 66.1815C356.368 62.271 354.312 58.6218 351.706 55.3805C350.195 53.5004 348.237 51.6444 345.828 51.5718C345.151 51.5475 344.434 51.6646 343.813 51.3539C343.357 51.0584 342.973 50.6641 342.689 50.2C341.496 48.6901 339.914 47.5354 338.113 46.8606C336.312 46.1857 334.362 46.0165 332.472 46.371L332.222 46.4235C332.081 46.4517 331.94 46.484 331.819 46.5203C331.698 46.5566 331.481 46.6171 331.311 46.6696C331.497 46.9762 331.678 47.2869 331.855 47.6016C332.333 48.4543 332.777 49.3258 333.185 50.2161C333.523 50.9585 333.836 51.713 334.124 52.4796C329.998 52.9516 326.638 55.8849 323.568 58.6769L316.34 65.2454C316.327 65.2565 316.315 65.2686 316.304 65.2817L316.094 65.4835C316.042 65.5359 315.989 65.5884 315.941 65.6449C315.922 65.6617 315.904 65.6806 315.889 65.7013C315.828 65.7659 315.772 65.8345 315.715 65.9031C315.615 66.0301 315.525 66.1651 315.445 66.3065C315.406 66.3671 315.371 66.4305 315.341 66.4962C315.33 66.5155 315.32 66.5358 315.312 66.5567C315.286 66.6117 315.263 66.6683 315.244 66.7262C315.242 66.7341 315.242 66.7424 315.244 66.7504C315.233 66.7834 315.223 66.8171 315.216 66.8512C315.134 67.1352 315.158 67.4394 315.284 67.7066L320.051 67.759H320.611C320.635 68.3965 320.655 69.038 320.679 69.6755C319.923 70.2424 319.197 70.8485 318.503 71.4912C317.748 72.1918 317.038 72.9411 316.38 73.7345C312.081 78.9352 309.837 85.653 309.612 92.4152C309.612 92.625 309.612 92.8187 309.612 93.0365C309.612 93.6539 309.612 94.2712 309.612 94.8845C309.612 95.2879 309.648 95.6914 309.68 96.0949C309.682 96.6204 309.821 97.1364 310.083 97.5917C310.117 97.6426 310.155 97.6911 310.196 97.737C310.437 97.9998 310.728 98.2134 311.05 98.3664L311.396 98.5359C311.57 98.6206 311.735 98.7013 311.896 98.7941C313.415 99.6535 314.313 101.312 315.695 102.377C315.776 102.437 315.856 102.498 315.937 102.55L316.118 102.671L316.231 102.744L316.384 102.833C316.485 102.894 316.588 102.949 316.694 102.998L316.888 103.095H316.92C317.081 103.168 317.242 103.236 317.408 103.297L317.637 103.378L317.706 103.402C317.77 103.422 317.839 103.446 317.907 103.462C318.044 103.503 318.178 103.539 318.31 103.571L318.713 103.66C318.87 103.688 319.031 103.716 319.192 103.737L319.43 103.769L319.672 103.793C320.056 103.828 320.443 103.848 320.832 103.854C322.054 103.846 323.275 103.761 324.486 103.599L334.768 102.389C337.101 102.119 339.482 101.848 341.783 102.324C343.733 102.728 345.53 103.656 347.423 104.314C347.85 104.463 348.277 104.6 348.708 104.717C348.865 104.761 349.027 104.81 349.188 104.85L349.409 104.907L349.925 105.032C350.11 105.076 350.296 105.121 350.481 105.157C350.743 105.213 351.001 105.262 351.263 105.31C351.44 105.346 351.621 105.375 351.803 105.407H351.839L352.355 105.488H352.479L352.862 105.54C353.048 105.568 353.233 105.593 353.422 105.613C353.833 105.664 354.244 105.708 354.655 105.746C355.32 105.81 355.989 105.859 356.67 105.899L357.338 105.94L358.007 105.972L360.022 106.061H360.11H360.392C361.23 106.119 362.071 106.076 362.898 105.932C363.043 105.903 363.184 105.871 363.325 105.831C363.466 105.79 363.583 105.75 363.728 105.702C365.239 105.121 366.343 103.785 367.108 102.357C367.27 102.054 367.419 101.752 367.556 101.441C367.693 101.13 367.818 100.815 367.93 100.501C368.071 100.097 368.192 99.714 368.297 99.3105C368.329 99.2016 368.357 99.0927 368.382 98.9797C368.406 98.8667 368.462 98.6448 368.494 98.4754C368.595 98.0114 368.672 97.5433 368.728 97.0713C368.728 96.922 368.764 96.7687 368.78 96.6194C368.817 96.2159 368.845 95.8407 368.861 95.4453C368.861 95.1467 368.861 94.8441 368.861 94.5415C368.857 94.2147 368.829 93.783 368.829 93.3674ZM358.499 69.2801C358.172 68.9735 357.838 68.679 357.499 68.4006C357.876 68.6386 358.212 68.9355 358.495 69.2801H358.499Z" fill="#464353" />
    <path d="M285.309 107.933C282.275 107.557 279.266 106.226 276.272 106.88C274.399 107.283 272.787 108.449 271.288 109.647C265.711 114.124 260.968 119.554 257.28 125.685C256.654 126.602 256.215 127.633 255.986 128.72C255.793 129.978 256.136 131.257 256.542 132.464C259.298 140.618 265.193 147.429 267.876 155.607C270.696 164.209 269.717 173.61 267.638 182.422C265.061 193.3 260.873 203.731 255.213 213.368C254.444 214.801 253.482 216.121 252.352 217.29C250.886 218.702 248.916 219.711 248.045 221.558C247.643 222.365 247.526 223.285 247.24 224.149C246.434 226.57 244.484 228.643 244.294 231.197C244.153 233.146 245.076 234.99 245.636 236.846C246.581 240.035 246.48 243.442 245.35 246.57C243.307 252.178 237.965 257.278 239.516 263.043C242.977 262.047 246.813 260.752 248.444 257.536C249.02 256.398 249.306 255.043 250.277 254.211C252.215 252.561 255.515 254.054 257.574 252.537C259.129 251.383 259.185 249.019 258.492 247.203C257.799 245.387 256.607 243.79 256.075 241.922C255.148 238.553 256.631 234.99 256.357 231.508C256.228 229.894 255.733 228.349 255.696 226.743C255.628 223.624 257.352 220.691 259.645 218.573C261.937 216.455 264.77 215.05 267.558 213.667L278.097 208.421C281.921 206.525 286.111 204.213 287.364 200.13C287.839 198.601 287.843 196.971 287.867 195.373C288.226 170.959 294.334 147.037 300.405 123.39C301.348 119.726 302.307 116.047 303.709 112.528C305.111 109.01 307.855 106.186 309.253 102.918C301.143 101.965 293.734 108.99 285.309 107.933Z" fill="#464353" />
    <path d="M343.41 261.095C344.341 266.743 344.909 272.513 345.352 278.254C338.1 284.274 330.292 289.511 322.359 294.369C321.908 294.647 321.453 294.922 320.997 295.176L320.961 295.37C320.943 295.324 320.921 295.279 320.897 295.236C320.281 293.905 319.205 292.841 317.867 292.243C314.894 285.989 311.923 279.735 308.955 273.481C307.343 270.104 305.732 266.695 304.926 263.051C304.926 262.975 304.89 262.894 304.878 262.817C304.265 259.993 304.124 257.06 303.717 254.199C303.511 252.561 303.143 250.947 302.617 249.382C302.134 247.99 301.469 246.638 300.881 245.279C300.156 243.6 299.547 241.901 299.519 240.09C299.519 239.513 299.555 238.879 299.273 238.395C298.972 237.978 298.6 237.618 298.173 237.33C297.642 236.858 297.238 236.258 297.002 235.587C296.765 234.916 296.702 234.195 296.82 233.493C294.402 233.618 293.041 236.221 292.07 238.428C291.187 240.586 290.028 242.621 288.621 244.48C287.595 245.808 286.292 246.894 284.801 247.663C284.668 247.728 284.536 247.792 284.399 247.849C281.034 249.333 277.106 248.809 273.46 248.139C270.273 247.554 266.977 246.828 264.415 244.843L264.141 244.625C263.382 243.994 262.706 243.27 262.127 242.47C259.979 239.533 259.028 235.664 258.5 231.98C258.452 231.633 258.404 231.286 258.359 230.939C257.993 228.336 257.892 225.703 258.057 223.08C258.106 222.434 258.174 221.788 258.259 221.147C258.315 220.743 258.376 220.308 258.444 219.888C258.442 219.876 258.442 219.864 258.444 219.852C258.549 219.186 258.662 218.516 258.774 217.834C259.177 215.547 259.58 213.199 260.789 211.23C261.584 210.004 262.588 208.928 263.754 208.05C264.189 207.707 264.637 207.38 265.088 207.066C265.821 206.557 266.574 206.073 267.34 205.617C269.266 204.463 271.288 203.477 273.383 202.672C273.883 202.478 274.391 202.297 274.898 202.123C276.872 201.42 278.995 201.252 281.055 201.635C282.879 201.899 284.723 202.007 286.566 201.958C291.292 201.865 296.038 200.961 300.756 200.376C307.307 199.569 314.346 199.472 320.059 202.797C320.333 202.954 320.599 203.12 320.864 203.293C323.685 205.141 325.957 207.731 327.79 210.624C328.193 211.234 328.544 211.859 328.89 212.492C329.689 213.946 330.411 215.441 331.054 216.971C331.434 217.722 331.639 218.55 331.654 219.392C331.645 219.552 331.623 219.711 331.589 219.868C331.481 220.441 331.263 220.998 331.187 221.579C330.933 223.778 332.798 225.613 333.495 227.707C333.946 229.071 333.898 230.532 334.152 231.968C334.518 233.985 335.506 235.801 336.392 237.617C337.793 240.539 338.991 243.555 339.978 246.642C340.679 248.793 341.279 250.976 341.807 253.179C341.979 253.886 342.141 254.595 342.294 255.305C342.734 257.258 343.092 259.17 343.41 261.095Z" fill="#F86D70" />
    <path d="M386.367 201.345V204.169L385.847 204.161L385.267 204.153L378.788 204.072L362.826 203.862L358.346 203.806L357.185 203.79L350.461 203.705L340.985 203.58L320.881 203.318L285.994 202.866L273.404 202.704L268.351 202.64L263.702 202.579L260.805 202.539L258.061 202.502L237.719 202.24L232.079 202.168L230.85 202.151L230.052 200.09L224.255 185.117L223.195 182.381L224.001 179.154L227.627 181.574L229.859 181.853L266.607 186.428L273.504 187.288L288.129 189.111L302.456 190.895L308.073 191.593L341.307 195.732L350.594 196.89L358.281 197.846L385.613 201.252L386.367 201.345Z" fill="#3F3D56" />
    <path d="M224.001 179.154L231.253 198.117L386.367 201.344V180.767L224.001 179.154Z" fill="#504F60" />
    <path d="M232.059 200.134L233.267 315.931L238.908 315.124L237.699 200.134H232.059Z" fill="#3F3D56" />
    <path d="M385.847 204.157H385.267C384.328 211.376 382.774 218.502 380.622 225.456L378.788 204.072L378.712 203.16L385.489 202.377L385.714 202.353L385.847 204.157Z" fill="#3F3D56" />
    <path d="M363.805 190.451L304.781 191.661L286.449 185.609L335.602 182.785L363.805 190.451Z" fill="white" />
    <path d="M289.765 166.92C289.139 167.161 288.585 167.556 288.153 168.07C287.816 168.627 287.611 169.254 287.553 169.902L286.562 175.821C286.411 176.362 286.438 176.938 286.639 177.463C286.896 177.959 287.646 178.218 288.021 177.806C287.972 178.964 288.073 180.199 288.746 181.143C289.419 182.087 290.829 182.583 291.78 181.925C291.929 182.169 292.129 182.377 292.366 182.535C292.603 182.693 292.872 182.798 293.154 182.841C293.436 182.885 293.723 182.867 293.997 182.788C294.271 182.71 294.525 182.572 294.741 182.385C294.169 182.579 294.128 183.455 294.535 183.898C294.991 184.301 295.572 184.534 296.179 184.556C303.259 185.556 310.477 184.646 317.089 181.921C317.714 181.663 316.07 173.953 315.905 173.162C315.502 171.302 315.3 169.031 313.733 167.78C309.986 164.786 303.33 164.197 298.766 164.552C295.647 164.788 292.597 165.591 289.765 166.92Z" fill="#FBBEBE" />
    <path opacity="0.1" d="M349.82 167.816C335.248 168.094 320.373 168.332 306.465 163.963C307.794 169.118 307.702 174.538 306.199 179.646L374.336 185.294C377.225 185.532 389.203 186.888 392.019 186.206C394.836 185.524 368.39 176.801 369.457 174.102C372.395 166.666 382.233 162.309 375.146 162.03C366.202 161.675 358.833 167.647 349.82 167.816Z" fill="black" />
    <path d="M350.223 168.623C335.651 168.901 320.776 169.139 306.868 164.77C308.196 169.925 308.104 175.345 306.602 180.453L374.739 186.101C377.628 186.339 389.606 187.715 392.422 187.013C395.239 186.311 394.578 182.853 395.645 180.154C398.583 172.718 382.636 163.116 375.549 162.837C366.605 162.482 359.236 168.454 350.223 168.623Z" fill="#464353" />
    <path d="M327.053 169.745C327.679 169.985 328.233 170.38 328.664 170.895C329.001 171.452 329.208 172.078 329.269 172.726L330.26 178.645C330.409 179.187 330.382 179.762 330.183 180.287C329.925 180.784 329.172 181.042 328.801 180.63C328.846 181.788 328.749 183.023 328.076 183.967C327.403 184.911 325.993 185.407 325.038 184.75C324.889 184.993 324.689 185.201 324.452 185.359C324.214 185.517 323.946 185.622 323.664 185.666C323.382 185.709 323.094 185.691 322.82 185.613C322.546 185.534 322.293 185.396 322.077 185.21C322.649 185.403 322.693 186.279 322.287 186.723C321.829 187.126 321.247 187.358 320.639 187.38C313.56 188.38 306.343 187.47 299.733 184.746C299.108 184.488 300.748 176.777 300.917 175.986C301.32 174.126 301.521 171.855 303.089 170.604C306.832 167.61 313.491 167.021 318.056 167.376C321.174 167.613 324.222 168.416 327.053 169.745Z" fill="#FBBEBE" />
    <path d="M230.761 156.894C229.424 158.621 228.082 160.384 227.22 162.397C225.572 166.238 225.814 170.588 226.088 174.76C226.164 175.97 226.261 177.205 226.894 178.209C227.44 178.968 228.162 179.584 228.997 180.005C232.486 181.99 236.571 182.583 240.56 183.027C246.668 183.705 252.797 184.118 258.948 184.266C274.185 184.637 289.656 183.39 304.499 186.848C302.662 184.052 302.666 180.352 303.693 177.164C304.72 173.977 306.699 171.201 308.637 168.47C301.844 166.315 294.559 169.68 287.444 169.345C280.14 169.002 273.379 164.774 266.067 164.778C264.496 164.778 262.896 164.976 261.369 164.596C259.842 164.217 258.364 163.063 258.222 161.494C260.172 161.933 262.022 160.263 262.828 158.431C263.633 156.6 263.778 154.53 264.56 152.686C266.506 148.098 271.764 145.972 275.035 142.196C275.551 141.598 276.038 140.892 276.022 140.102C275.945 139.432 275.664 138.802 275.217 138.298C272.497 134.667 268.4 132.649 264.995 129.825C263.811 128.841 261.421 125.129 260.092 124.786C257.626 124.152 255.535 127.719 253.932 129.458C245.836 138.267 238.113 147.412 230.761 156.894Z" fill="#464353" />
    <path opacity="0.07" d="M311.775 155.869C312.796 156.628 313.704 157.528 314.471 158.544C314.852 159.054 315.124 159.638 315.269 160.259C315.414 160.88 315.429 161.524 315.313 162.151C315.188 160.982 315.448 159.804 316.054 158.796C316.66 157.789 317.578 157.007 318.669 156.571L311.775 155.869Z" fill="black" />
    <g opacity="0.1">
      <path opacity="0.1" d="M334.12 50.0628C333.646 48.8018 333.099 47.5691 332.484 46.371C332.086 46.4476 331.693 46.5487 331.307 46.6736C331.999 47.8234 332.621 49.013 333.173 50.2363C333.483 50.1556 333.797 50.0991 334.12 50.0628Z" fill="black" />
      <path opacity="0.1" d="M357.495 65.9717C357.604 66.0604 357.709 66.1613 357.814 66.2541C357.806 66.2279 357.797 66.2023 357.785 66.1774C357.694 66.1102 357.597 66.0416 357.495 65.9717Z" fill="black" />
      <path opacity="0.1" d="M320.042 67.7469C320.252 67.5815 320.445 67.408 320.671 67.2466L320.606 65.3301L316.304 65.2858C315.607 65.9273 314.865 66.8472 315.276 67.7066L320.042 67.7469Z" fill="black" />
      <path opacity="0.1" d="M367.084 100.009C366.319 101.437 365.215 102.776 363.704 103.353C362.54 103.797 361.258 103.757 360.013 103.7C355.767 103.527 351.448 103.337 347.435 101.929C345.558 101.267 343.761 100.343 341.795 99.9359C339.494 99.4598 337.113 99.7302 334.78 100.005L324.498 101.215C321.465 101.57 318.084 101.836 315.663 99.9722C314.277 98.9071 313.383 97.2488 311.864 96.3934C311.223 96.0303 310.462 95.7963 310.047 95.183C309.785 94.7276 309.646 94.2117 309.644 93.6862C309.611 93.2625 309.591 92.8389 309.575 92.4152C309.532 93.6461 309.554 94.8785 309.644 96.107C309.646 96.6325 309.785 97.1485 310.047 97.6039C310.449 98.2131 311.223 98.4471 311.864 98.8143C313.383 99.6696 314.281 101.328 315.663 102.393C318.08 104.257 321.465 104.007 324.498 103.636L334.78 102.425C337.113 102.151 339.494 101.881 341.795 102.357C343.745 102.76 345.542 103.688 347.435 104.35C351.464 105.758 355.767 105.964 360.013 106.121C361.258 106.174 362.54 106.218 363.704 105.774C365.215 105.197 366.319 103.858 367.084 102.429C368.567 99.6656 368.982 96.5306 368.825 93.3714C368.738 95.685 368.144 97.9511 367.084 100.009Z" fill="black" />
    </g>
    <path opacity="0.1" d="M334.003 52.6571L339.643 57.9022C339.643 57.9022 334.808 55.8849 334.003 52.6571Z" fill="black" />
  </g>
  <defs>
    <clipPath id="clip0">
      <rect width="396" height="324" fill="white" />
    </clipPath>
  </defs>
</svg>
  