<svg width="20" height="20" viewBox="0 0 20 20" fill="none"
  xmlns="http://www.w3.org/2000/svg">
  <path d="M19 4.66665H15.3333V3.66665C15.3319 2.3786 14.288 1.33477 13 1.33331H7C5.71196 1.33477 4.66813 2.3786 4.66667 3.66665V4.66665H1C0.447708 4.66665 0 5.11436 0 5.66665V12.3333C0.00175 12.7556 0.268542 13.1312 0.666667 13.272V17.6666C0.666667 18.2189 1.11437 18.6666 1.66667 18.6666H18.3333C18.8856 18.6666 19.3333 18.2189 19.3333 17.6666V13.272C19.7315 13.1312 19.9983 12.7556 20 12.3333V5.66665C20 5.11436 19.5523 4.66665 19 4.66665ZM5.33333 3.66665C5.33442 2.74665 6.08 2.00106 7 1.99998H13C13.92 2.00106 14.6656 2.74665 14.6667 3.66665V4.66665H13.9867L14 3.66665C13.9989 3.11481 13.5518 2.66773 13 2.66665H6.98767C6.43583 2.66773 5.98875 3.11481 5.98767 3.66665V3.66998L5.99667 4.66665H5.33333V3.66665ZM13.3333 3.66198L13.32 4.66665H6.66333L6.653 3.66665C6.653 3.48256 6.80225 3.33331 6.98633 3.33331H13C13.1823 3.33331 13.3308 3.47969 13.3333 3.66198ZM18.6667 17.6666C18.6667 17.8507 18.5174 18 18.3333 18H1.66667C1.48258 18 1.33333 17.8507 1.33333 17.6666V13.3333H3.66667V14.3333C3.66667 14.5174 3.81592 14.6666 4 14.6666H5.33333C5.51742 14.6666 5.66667 14.5174 5.66667 14.3333V13.3333H14.3333V14.3333C14.3333 14.5174 14.4826 14.6666 14.6667 14.6666H16C16.1841 14.6666 16.3333 14.5174 16.3333 14.3333V13.3333H18.6667V17.6666ZM4.33333 14V12.3333C4.33317 12.2434 4.37021 12.1575 4.43567 12.096C4.49629 12.0337 4.57975 11.999 4.66667 12C4.85075 12 5 12.1492 5 12.3333V13V14H4.33333ZM15 14V12.3333C15 12.1492 15.1493 12 15.3333 12C15.4233 11.9997 15.5093 12.0366 15.571 12.102C15.6328 12.163 15.6673 12.2464 15.6667 12.3333V13V14H15ZM19.3333 12.3333C19.3333 12.5174 19.1841 12.6666 19 12.6666H16.3333V12.3333C16.331 11.782 15.8846 11.3357 15.3333 11.3333C14.781 11.3333 14.3333 11.781 14.3333 12.3333V12.6666H5.66667V12.3333C5.66667 11.781 5.21896 11.3333 4.66667 11.3333C4.11567 11.3364 3.66975 11.7823 3.66667 12.3333V12.6666H1C0.815917 12.6666 0.666667 12.5174 0.666667 12.3333V5.66665C0.666667 5.48256 0.815917 5.33331 1 5.33331H19C19.1841 5.33331 19.3333 5.48256 19.3333 5.66665V12.3333Z" fill="#f7f7f7" />
</svg>
  