<svg viewBox="0 0 35 35" fill="none"
  xmlns="http://www.w3.org/2000/svg">
  <path d="M26.2596 0C26.2596 0 23.38 2.79382 20.2656 3.9202C-2.79726 12.2621 6.92934 28.5182 7.24665 28.5718C7.24665 28.5718 8.53991 26.3197 10.2869 25.0351C21.3726 16.8855 23.6257 7.50494 23.6257 7.50494C23.6257 7.50494 21.1381 18.7928 11.2757 25.8164C9.09748 27.3668 7.62256 31.1844 6.99821 35C6.99821 35 8.54226 34.3762 9.20622 34.2072C9.46513 32.5176 10.0065 30.8997 10.9217 29.4544C24.7055 31.0955 29.22 19.9887 29.8097 16.1159C31.2017 6.96901 26.2596 0 26.2596 0Z" fill="#FEC576" />
</svg>
  